<svg width="456" height="456" viewBox="0 0 456 456" fill="none" xmlns="http://www.w3.org/2000/svg">
<mask id="path-1-inside-1_197_1538" fill="white">
<path d="M0 0H38V38H0V0Z"/>
<path d="M38 0H76V38H38V0Z"/>
<path d="M76 0H114V38H76V0Z"/>
<path d="M114 0H152V38H114V0Z"/>
<path d="M152 0H190V38H152V0Z"/>
<path d="M190 0H228V38H190V0Z"/>
<path d="M228 0H266V38H228V0Z"/>
<path d="M266 0H304V38H266V0Z"/>
<path d="M304 0H342V38H304V0Z"/>
<path d="M342 0H380V38H342V0Z"/>
<path d="M380 0H418V38H380V0Z"/>
<path d="M418 0H456V38H418V0Z"/>
<path d="M0 38H38V76H0V38Z"/>
<path d="M38 38H76V76H38V38Z"/>
<path d="M76 38H114V76H76V38Z"/>
<path d="M114 38H152V76H114V38Z"/>
<path d="M152 38H190V76H152V38Z"/>
<path d="M190 38H228V76H190V38Z"/>
<path d="M228 38H266V76H228V38Z"/>
<path d="M266 38H304V76H266V38Z"/>
<path d="M304 38H342V76H304V38Z"/>
<path d="M342 38H380V76H342V38Z"/>
<path d="M380 38H418V76H380V38Z"/>
<path d="M418 38H456V76H418V38Z"/>
<path d="M0 76H38V114H0V76Z"/>
<path d="M38 76H76V114H38V76Z"/>
<path d="M76 76H114V114H76V76Z"/>
<path d="M114 76H152V114H114V76Z"/>
<path d="M152 76H190V114H152V76Z"/>
<path d="M190 76H228V114H190V76Z"/>
<path d="M228 76H266V114H228V76Z"/>
<path d="M266 76H304V114H266V76Z"/>
<path d="M304 76H342V114H304V76Z"/>
<path d="M342 76H380V114H342V76Z"/>
<path d="M380 76H418V114H380V76Z"/>
<path d="M418 76H456V114H418V76Z"/>
<path d="M0 114H38V152H0V114Z"/>
<path d="M38 114H76V152H38V114Z"/>
<path d="M76 114H114V152H76V114Z"/>
<path d="M114 114H152V152H114V114Z"/>
<path d="M152 114H190V152H152V114Z"/>
<path d="M190 114H228V152H190V114Z"/>
<path d="M228 114H266V152H228V114Z"/>
<path d="M266 114H304V152H266V114Z"/>
<path d="M304 114H342V152H304V114Z"/>
<path d="M342 114H380V152H342V114Z"/>
<path d="M380 114H418V152H380V114Z"/>
<path d="M418 114H456V152H418V114Z"/>
<path d="M0 152H38V190H0V152Z"/>
<path d="M38 152H76V190H38V152Z"/>
<path d="M76 152H114V190H76V152Z"/>
<path d="M114 152H152V190H114V152Z"/>
<path d="M152 152H190V190H152V152Z"/>
<path d="M190 152H228V190H190V152Z"/>
<path d="M228 152H266V190H228V152Z"/>
<path d="M266 152H304V190H266V152Z"/>
<path d="M304 152H342V190H304V152Z"/>
<path d="M342 152H380V190H342V152Z"/>
<path d="M380 152H418V190H380V152Z"/>
<path d="M418 152H456V190H418V152Z"/>
<path d="M0 190H38V228H0V190Z"/>
<path d="M38 190H76V228H38V190Z"/>
<path d="M76 190H114V228H76V190Z"/>
<path d="M114 190H152V228H114V190Z"/>
<path d="M152 190H190V228H152V190Z"/>
<path d="M190 190H228V228H190V190Z"/>
<path d="M228 190H266V228H228V190Z"/>
<path d="M266 190H304V228H266V190Z"/>
<path d="M304 190H342V228H304V190Z"/>
<path d="M342 190H380V228H342V190Z"/>
<path d="M380 190H418V228H380V190Z"/>
<path d="M418 190H456V228H418V190Z"/>
<path d="M0 228H38V266H0V228Z"/>
<path d="M38 228H76V266H38V228Z"/>
<path d="M76 228H114V266H76V228Z"/>
<path d="M114 228H152V266H114V228Z"/>
<path d="M152 228H190V266H152V228Z"/>
<path d="M190 228H228V266H190V228Z"/>
<path d="M228 228H266V266H228V228Z"/>
<path d="M266 228H304V266H266V228Z"/>
<path d="M304 228H342V266H304V228Z"/>
<path d="M342 228H380V266H342V228Z"/>
<path d="M380 228H418V266H380V228Z"/>
<path d="M418 228H456V266H418V228Z"/>
<path d="M0 266H38V304H0V266Z"/>
<path d="M38 266H76V304H38V266Z"/>
<path d="M76 266H114V304H76V266Z"/>
<path d="M114 266H152V304H114V266Z"/>
<path d="M152 266H190V304H152V266Z"/>
<path d="M190 266H228V304H190V266Z"/>
<path d="M228 266H266V304H228V266Z"/>
<path d="M266 266H304V304H266V266Z"/>
<path d="M304 266H342V304H304V266Z"/>
<path d="M342 266H380V304H342V266Z"/>
<path d="M380 266H418V304H380V266Z"/>
<path d="M418 266H456V304H418V266Z"/>
<path d="M0 304H38V342H0V304Z"/>
<path d="M38 304H76V342H38V304Z"/>
<path d="M76 304H114V342H76V304Z"/>
<path d="M114 304H152V342H114V304Z"/>
<path d="M152 304H190V342H152V304Z"/>
<path d="M190 304H228V342H190V304Z"/>
<path d="M228 304H266V342H228V304Z"/>
<path d="M266 304H304V342H266V304Z"/>
<path d="M304 304H342V342H304V304Z"/>
<path d="M342 304H380V342H342V304Z"/>
<path d="M380 304H418V342H380V304Z"/>
<path d="M418 304H456V342H418V304Z"/>
<path d="M0 342H38V380H0V342Z"/>
<path d="M38 342H76V380H38V342Z"/>
<path d="M76 342H114V380H76V342Z"/>
<path d="M114 342H152V380H114V342Z"/>
<path d="M152 342H190V380H152V342Z"/>
<path d="M190 342H228V380H190V342Z"/>
<path d="M228 342H266V380H228V342Z"/>
<path d="M266 342H304V380H266V342Z"/>
<path d="M304 342H342V380H304V342Z"/>
<path d="M342 342H380V380H342V342Z"/>
<path d="M380 342H418V380H380V342Z"/>
<path d="M418 342H456V380H418V342Z"/>
<path d="M0 380H38V418H0V380Z"/>
<path d="M38 380H76V418H38V380Z"/>
<path d="M76 380H114V418H76V380Z"/>
<path d="M114 380H152V418H114V380Z"/>
<path d="M152 380H190V418H152V380Z"/>
<path d="M190 380H228V418H190V380Z"/>
<path d="M228 380H266V418H228V380Z"/>
<path d="M266 380H304V418H266V380Z"/>
<path d="M304 380H342V418H304V380Z"/>
<path d="M342 380H380V418H342V380Z"/>
<path d="M380 380H418V418H380V380Z"/>
<path d="M418 380H456V418H418V380Z"/>
<path d="M0 418H38V456H0V418Z"/>
<path d="M38 418H76V456H38V418Z"/>
<path d="M76 418H114V456H76V418Z"/>
<path d="M114 418H152V456H114V418Z"/>
<path d="M152 418H190V456H152V418Z"/>
<path d="M190 418H228V456H190V418Z"/>
<path d="M228 418H266V456H228V418Z"/>
<path d="M266 418H304V456H266V418Z"/>
<path d="M304 418H342V456H304V418Z"/>
<path d="M342 418H380V456H342V418Z"/>
<path d="M380 418H418V456H380V418Z"/>
<path d="M418 418H456V456H418V418Z"/>
</mask>
<path d="M37.5 0V38H38.5V0H37.5ZM38 37.5H0V38.5H38V37.5ZM75.5 0V38H76.5V0H75.5ZM76 37.5H38V38.5H76V37.5ZM113.5 0V38H114.5V0H113.5ZM114 37.5H76V38.5H114V37.5ZM151.5 0V38H152.5V0H151.5ZM152 37.5H114V38.5H152V37.5ZM189.5 0V38H190.5V0H189.5ZM190 37.5H152V38.5H190V37.5ZM227.5 0V38H228.5V0H227.5ZM228 37.5H190V38.5H228V37.5ZM265.5 0V38H266.5V0H265.5ZM266 37.5H228V38.5H266V37.5ZM303.5 0V38H304.5V0H303.5ZM304 37.5H266V38.5H304V37.5ZM341.5 0V38H342.5V0H341.5ZM342 37.5H304V38.5H342V37.5ZM379.5 0V38H380.5V0H379.5ZM380 37.5H342V38.5H380V37.5ZM417.5 0V38H418.5V0H417.5ZM418 37.5H380V38.5H418V37.5ZM456 37.5H418V38.5H456V37.5ZM37.5 38V76H38.5V38H37.5ZM38 75.5H0V76.5H38V75.5ZM75.5 38V76H76.5V38H75.5ZM76 75.5H38V76.5H76V75.5ZM113.5 38V76H114.5V38H113.5ZM114 75.5H76V76.5H114V75.5ZM151.5 38V76H152.5V38H151.5ZM152 75.5H114V76.5H152V75.5ZM189.5 38V76H190.5V38H189.5ZM190 75.5H152V76.5H190V75.5ZM227.5 38V76H228.5V38H227.5ZM228 75.5H190V76.5H228V75.5ZM265.5 38V76H266.5V38H265.5ZM266 75.5H228V76.5H266V75.5ZM303.5 38V76H304.5V38H303.5ZM304 75.5H266V76.5H304V75.5ZM341.5 38V76H342.5V38H341.5ZM342 75.5H304V76.5H342V75.5ZM379.5 38V76H380.5V38H379.5ZM380 75.5H342V76.5H380V75.5ZM417.5 38V76H418.5V38H417.5ZM418 75.5H380V76.5H418V75.5ZM456 75.5H418V76.5H456V75.5ZM37.5 76V114H38.5V76H37.5ZM38 113.5H0V114.5H38V113.5ZM75.5 76V114H76.5V76H75.5ZM76 113.5H38V114.5H76V113.5ZM113.5 76V114H114.5V76H113.5ZM114 113.5H76V114.5H114V113.5ZM151.5 76V114H152.5V76H151.5ZM152 113.5H114V114.5H152V113.5ZM189.5 76V114H190.5V76H189.5ZM190 113.5H152V114.5H190V113.5ZM227.5 76V114H228.5V76H227.5ZM228 113.5H190V114.5H228V113.5ZM265.5 76V114H266.5V76H265.5ZM266 113.5H228V114.5H266V113.5ZM303.5 76V114H304.5V76H303.5ZM304 113.5H266V114.5H304V113.5ZM341.5 76V114H342.5V76H341.5ZM342 113.5H304V114.5H342V113.5ZM379.5 76V114H380.5V76H379.5ZM380 113.5H342V114.5H380V113.5ZM417.5 76V114H418.5V76H417.5ZM418 113.5H380V114.5H418V113.5ZM456 113.5H418V114.5H456V113.5ZM37.5 114V152H38.5V114H37.5ZM38 151.5H0V152.5H38V151.5ZM75.5 114V152H76.5V114H75.5ZM76 151.5H38V152.5H76V151.5ZM113.5 114V152H114.5V114H113.5ZM114 151.5H76V152.5H114V151.5ZM151.5 114V152H152.5V114H151.5ZM152 151.5H114V152.5H152V151.5ZM189.5 114V152H190.5V114H189.5ZM190 151.5H152V152.5H190V151.5ZM227.5 114V152H228.5V114H227.5ZM228 151.5H190V152.5H228V151.5ZM265.5 114V152H266.5V114H265.5ZM266 151.5H228V152.5H266V151.5ZM303.5 114V152H304.5V114H303.5ZM304 151.5H266V152.5H304V151.5ZM341.5 114V152H342.5V114H341.5ZM342 151.5H304V152.5H342V151.5ZM379.5 114V152H380.5V114H379.5ZM380 151.5H342V152.5H380V151.5ZM417.5 114V152H418.5V114H417.5ZM418 151.5H380V152.5H418V151.5ZM456 151.5H418V152.5H456V151.5ZM37.5 152V190H38.5V152H37.5ZM38 189.5H0V190.5H38V189.5ZM75.5 152V190H76.5V152H75.5ZM76 189.5H38V190.5H76V189.5ZM113.5 152V190H114.5V152H113.5ZM114 189.5H76V190.5H114V189.5ZM151.5 152V190H152.5V152H151.5ZM152 189.5H114V190.5H152V189.5ZM189.5 152V190H190.5V152H189.5ZM190 189.5H152V190.5H190V189.5ZM227.5 152V190H228.5V152H227.5ZM228 189.5H190V190.5H228V189.5ZM265.5 152V190H266.5V152H265.5ZM266 189.5H228V190.5H266V189.5ZM303.5 152V190H304.5V152H303.5ZM304 189.5H266V190.5H304V189.5ZM341.5 152V190H342.5V152H341.5ZM342 189.5H304V190.5H342V189.5ZM379.5 152V190H380.5V152H379.5ZM380 189.5H342V190.5H380V189.5ZM417.5 152V190H418.5V152H417.5ZM418 189.5H380V190.5H418V189.5ZM456 189.5H418V190.5H456V189.5ZM37.5 190V228H38.5V190H37.5ZM38 227.5H0V228.5H38V227.5ZM75.5 190V228H76.5V190H75.5ZM76 227.5H38V228.5H76V227.5ZM113.5 190V228H114.5V190H113.5ZM114 227.5H76V228.5H114V227.5ZM151.5 190V228H152.5V190H151.5ZM152 227.5H114V228.5H152V227.5ZM189.5 190V228H190.5V190H189.5ZM190 227.5H152V228.5H190V227.5ZM227.5 190V228H228.5V190H227.5ZM228 227.5H190V228.5H228V227.5ZM265.5 190V228H266.5V190H265.5ZM266 227.5H228V228.5H266V227.5ZM303.5 190V228H304.5V190H303.5ZM304 227.5H266V228.5H304V227.5ZM341.5 190V228H342.5V190H341.5ZM342 227.5H304V228.5H342V227.5ZM379.5 190V228H380.5V190H379.5ZM380 227.5H342V228.5H380V227.5ZM417.5 190V228H418.5V190H417.5ZM418 227.5H380V228.5H418V227.5ZM456 227.5H418V228.5H456V227.5ZM37.5 228V266H38.5V228H37.5ZM38 265.5H0V266.5H38V265.5ZM75.5 228V266H76.5V228H75.5ZM76 265.5H38V266.5H76V265.5ZM113.5 228V266H114.5V228H113.5ZM114 265.5H76V266.5H114V265.5ZM151.5 228V266H152.5V228H151.5ZM152 265.5H114V266.5H152V265.5ZM189.5 228V266H190.5V228H189.5ZM190 265.5H152V266.5H190V265.5ZM227.5 228V266H228.5V228H227.5ZM228 265.5H190V266.5H228V265.5ZM265.5 228V266H266.5V228H265.5ZM266 265.5H228V266.5H266V265.5ZM303.5 228V266H304.5V228H303.5ZM304 265.5H266V266.5H304V265.5ZM341.5 228V266H342.5V228H341.5ZM342 265.5H304V266.5H342V265.5ZM379.5 228V266H380.5V228H379.5ZM380 265.5H342V266.5H380V265.5ZM417.5 228V266H418.5V228H417.5ZM418 265.5H380V266.5H418V265.5ZM456 265.5H418V266.5H456V265.5ZM37.5 266V304H38.5V266H37.5ZM38 303.5H0V304.5H38V303.5ZM75.5 266V304H76.5V266H75.5ZM76 303.5H38V304.5H76V303.5ZM113.5 266V304H114.5V266H113.5ZM114 303.5H76V304.5H114V303.5ZM151.5 266V304H152.5V266H151.5ZM152 303.5H114V304.5H152V303.5ZM189.5 266V304H190.5V266H189.5ZM190 303.5H152V304.5H190V303.5ZM227.5 266V304H228.5V266H227.5ZM228 303.5H190V304.5H228V303.5ZM265.5 266V304H266.5V266H265.5ZM266 303.5H228V304.5H266V303.5ZM303.5 266V304H304.5V266H303.5ZM304 303.5H266V304.5H304V303.5ZM341.5 266V304H342.5V266H341.5ZM342 303.5H304V304.5H342V303.5ZM379.5 266V304H380.5V266H379.5ZM380 303.5H342V304.5H380V303.5ZM417.5 266V304H418.5V266H417.5ZM418 303.5H380V304.5H418V303.5ZM456 303.5H418V304.5H456V303.5ZM37.5 304V342H38.5V304H37.5ZM38 341.5H0V342.5H38V341.5ZM75.5 304V342H76.5V304H75.5ZM76 341.5H38V342.5H76V341.5ZM113.5 304V342H114.5V304H113.5ZM114 341.5H76V342.5H114V341.5ZM151.5 304V342H152.5V304H151.5ZM152 341.5H114V342.5H152V341.5ZM189.5 304V342H190.5V304H189.5ZM190 341.5H152V342.5H190V341.5ZM227.5 304V342H228.5V304H227.5ZM228 341.5H190V342.5H228V341.5ZM265.5 304V342H266.5V304H265.5ZM266 341.5H228V342.5H266V341.5ZM303.5 304V342H304.5V304H303.5ZM304 341.5H266V342.5H304V341.5ZM341.5 304V342H342.5V304H341.5ZM342 341.5H304V342.5H342V341.5ZM379.5 304V342H380.5V304H379.5ZM380 341.5H342V342.5H380V341.5ZM417.5 304V342H418.5V304H417.5ZM418 341.5H380V342.5H418V341.5ZM456 341.5H418V342.5H456V341.5ZM37.5 342V380H38.5V342H37.5ZM38 379.5H0V380.5H38V379.5ZM75.5 342V380H76.5V342H75.5ZM76 379.5H38V380.5H76V379.5ZM113.5 342V380H114.5V342H113.5ZM114 379.5H76V380.5H114V379.5ZM151.5 342V380H152.5V342H151.5ZM152 379.5H114V380.5H152V379.5ZM189.5 342V380H190.5V342H189.5ZM190 379.5H152V380.5H190V379.5ZM227.5 342V380H228.5V342H227.5ZM228 379.5H190V380.5H228V379.5ZM265.5 342V380H266.5V342H265.5ZM266 379.5H228V380.5H266V379.5ZM303.5 342V380H304.5V342H303.5ZM304 379.5H266V380.5H304V379.5ZM341.5 342V380H342.5V342H341.5ZM342 379.5H304V380.5H342V379.5ZM379.5 342V380H380.5V342H379.5ZM380 379.5H342V380.5H380V379.5ZM417.5 342V380H418.5V342H417.5ZM418 379.5H380V380.5H418V379.5ZM456 379.5H418V380.5H456V379.5ZM37.5 380V418H38.5V380H37.5ZM38 417.5H0V418.5H38V417.5ZM75.5 380V418H76.5V380H75.5ZM76 417.5H38V418.5H76V417.5ZM113.5 380V418H114.5V380H113.5ZM114 417.5H76V418.5H114V417.5ZM151.5 380V418H152.5V380H151.5ZM152 417.5H114V418.5H152V417.5ZM189.5 380V418H190.5V380H189.5ZM190 417.5H152V418.5H190V417.5ZM227.5 380V418H228.5V380H227.5ZM228 417.5H190V418.5H228V417.5ZM265.5 380V418H266.5V380H265.5ZM266 417.5H228V418.5H266V417.5ZM303.5 380V418H304.5V380H303.5ZM304 417.5H266V418.5H304V417.5ZM341.5 380V418H342.5V380H341.5ZM342 417.5H304V418.5H342V417.5ZM379.5 380V418H380.5V380H379.5ZM380 417.5H342V418.5H380V417.5ZM417.5 380V418H418.5V380H417.5ZM418 417.5H380V418.5H418V417.5ZM456 417.5H418V418.5H456V417.5ZM37.5 418V456H38.5V418H37.5ZM75.5 418V456H76.5V418H75.5ZM113.5 418V456H114.5V418H113.5ZM151.5 418V456H152.5V418H151.5ZM189.5 418V456H190.5V418H189.5ZM227.5 418V456H228.5V418H227.5ZM265.5 418V456H266.5V418H265.5ZM303.5 418V456H304.5V418H303.5ZM341.5 418V456H342.5V418H341.5ZM379.5 418V456H380.5V418H379.5ZM417.5 418V456H418.5V418H417.5ZM0 0V-1H-1V0H0ZM456 0H457V-1H456V0ZM0 456H-1V457H0V456ZM456 456V457H457V456H456ZM0 1H38V-1H0V1ZM1 38V0H-1V38H1ZM38 1H76V-1H38V1ZM76 1H114V-1H76V1ZM114 1H152V-1H114V1ZM152 1H190V-1H152V1ZM190 1H228V-1H190V1ZM228 1H266V-1H228V1ZM266 1H304V-1H266V1ZM304 1H342V-1H304V1ZM342 1H380V-1H342V1ZM380 1H418V-1H380V1ZM418 1H456V-1H418V1ZM455 0V38H457V0H455ZM1 76V38H-1V76H1ZM455 38V76H457V38H455ZM1 114V76H-1V114H1ZM455 76V114H457V76H455ZM1 152V114H-1V152H1ZM455 114V152H457V114H455ZM1 190V152H-1V190H1ZM455 152V190H457V152H455ZM1 228V190H-1V228H1ZM455 190V228H457V190H455ZM1 266V228H-1V266H1ZM455 228V266H457V228H455ZM1 304V266H-1V304H1ZM455 266V304H457V266H455ZM1 342V304H-1V342H1ZM455 304V342H457V304H455ZM1 380V342H-1V380H1ZM455 342V380H457V342H455ZM1 418V380H-1V418H1ZM455 380V418H457V380H455ZM38 455H0V457H38V455ZM1 456V418H-1V456H1ZM76 455H38V457H76V455ZM114 455H76V457H114V455ZM152 455H114V457H152V455ZM190 455H152V457H190V455ZM228 455H190V457H228V455ZM266 455H228V457H266V455ZM304 455H266V457H304V455ZM342 455H304V457H342V455ZM380 455H342V457H380V455ZM418 455H380V457H418V455ZM455 418V456H457V418H455ZM456 455H418V457H456V455Z" fill="url(#paint0_linear_197_1538)" mask="url(#path-1-inside-1_197_1538)"/>
<defs>
<linearGradient id="paint0_linear_197_1538" x1="452" y1="8.58595e-06" x2="201.5" y2="194" gradientUnits="userSpaceOnUse">
<stop stop-color="#8CADFF"/>
<stop offset="1" stop-color="#8CADFF" stop-opacity="0"/>
</linearGradient>
</defs>
</svg>