<svg height="512" viewBox="0 0 24 24" width="512" xmlns="http://www.w3.org/2000/svg"><circle cx="10.5" cy="22.5" r="1.5"/><circle cx="18.5" cy="22.5" r="1.5"/><path d="M18 2c0-1.103-.897-2-2-2s-2 .897-2 2 .897 2 2 2 2-.897 2-2zm6 6c0-1.103-.897-2-2-2s-2 .897-2 2 .897 2 2 2 2-.897 2-2zm-8.001 2a1 1 0 0 1-.799-1.6l6-8a1 1 0 0 1 1.6 1.2l-6 8a1 1 0 0 1-.801.4z"/><path d="m18.757 10.323-.358.477a3.015 3.015 0 0 1-2.4 1.2 2.97 2.97 0 0 1-1.802-.603 2.971 2.971 0 0 1-1.167-1.974 2.983 2.983 0 0 1 .569-2.223L14.5 6H6.359l-.38-1.806A2.764 2.764 0 0 0 3.3 2.011L.753 2H.75a.75.75 0 0 0-.003 1.5l2.546.011c.585.002 1.097.42 1.218.992l.505 2.401 1.81 8.596H6.25C5.009 15.5 4 16.509 4 17.75S5.009 20 6.25 20h15a.75.75 0 0 0 0-1.5h-15a.75.75 0 0 1 0-1.5h15a.751.751 0 0 0 .734-.596l.953-4.527A3.919 3.919 0 0 1 22 12a3.988 3.988 0 0 1-3.243-1.677z"/></svg>